<svg width="21" height="20" viewBox="0 0 21 20" fill="none" xmlns="http://www.w3.org/2000/svg">
<path d="M5.18335 0H1.18335C0.918133 0 0.663779 0.105357 0.476243 0.292893C0.288706 0.48043 0.18335 0.734784 0.18335 1V19C0.18335 19.2652 0.288706 19.5196 0.476243 19.7071C0.663779 19.8946 0.918133 20 1.18335 20H5.18335C5.44857 20 5.70292 19.8946 5.89046 19.7071C6.07799 19.5196 6.18335 19.2652 6.18335 19V1C6.18335 0.734784 6.07799 0.48043 5.89046 0.292893C5.70292 0.105357 5.44857 0 5.18335 0ZM3.18335 19C2.78779 19 2.40111 18.8827 2.07221 18.6629C1.74331 18.4432 1.48697 18.1308 1.33559 17.7654C1.18422 17.3999 1.14461 16.9978 1.22178 16.6098C1.29895 16.2219 1.48943 15.8655 1.76914 15.5858C2.04884 15.3061 2.40521 15.1156 2.79317 15.0384C3.18113 14.9613 3.58326 15.0009 3.94872 15.1522C4.31417 15.3036 4.62653 15.56 4.84629 15.8889C5.06605 16.2178 5.18335 16.6044 5.18335 17C5.18335 17.5304 4.97264 18.0391 4.59756 18.4142C4.22249 18.7893 3.71378 19 3.18335 19ZM5.18335 10H1.18335V1H5.18335V10ZM4.18335 17C4.18335 17.1978 4.1247 17.3911 4.01482 17.5556C3.90494 17.72 3.74876 17.8482 3.56603 17.9239C3.38331 17.9996 3.18224 18.0194 2.98826 17.9808C2.79428 17.9422 2.6161 17.847 2.47624 17.7071C2.33639 17.5673 2.24115 17.3891 2.20256 17.1951C2.16398 17.0011 2.18378 16.8 2.25947 16.6173C2.33516 16.4346 2.46333 16.2784 2.62778 16.1685C2.79223 16.0586 2.98557 16 3.18335 16C3.44857 16 3.70292 16.1054 3.89046 16.2929C4.07799 16.4804 4.18335 16.7348 4.18335 17ZM12.1833 0H8.18335C7.91813 0 7.66378 0.105357 7.47624 0.292893C7.28871 0.48043 7.18335 0.734784 7.18335 1V19C7.18335 19.2652 7.28871 19.5196 7.47624 19.7071C7.66378 19.8946 7.91813 20 8.18335 20H12.1833C12.4486 20 12.7029 19.8946 12.8905 19.7071C13.078 19.5196 13.1833 19.2652 13.1833 19V1C13.1833 0.734784 13.078 0.48043 12.8905 0.292893C12.7029 0.105357 12.4486 0 12.1833 0ZM10.1833 19C9.78779 19 9.40111 18.8827 9.07221 18.6629C8.74331 18.4432 8.48697 18.1308 8.33559 17.7654C8.18422 17.3999 8.14461 16.9978 8.22178 16.6098C8.29895 16.2219 8.48943 15.8655 8.76914 15.5858C9.04884 15.3061 9.40521 15.1156 9.79317 15.0384C10.1811 14.9613 10.5833 15.0009 10.9487 15.1522C11.3142 15.3036 11.6265 15.56 11.8463 15.8889C12.0661 16.2178 12.1833 16.6044 12.1833 17C12.1833 17.5304 11.9726 18.0391 11.5976 18.4142C11.2225 18.7893 10.7138 19 10.1833 19ZM12.1833 10H8.18335V1H12.1833V10ZM11.1833 17C11.1833 17.1978 11.1247 17.3911 11.0148 17.5556C10.9049 17.72 10.7488 17.8482 10.566 17.9239C10.3833 17.9996 10.1822 18.0194 9.98826 17.9808C9.79428 17.9422 9.6161 17.847 9.47624 17.7071C9.33639 17.5673 9.24115 17.3891 9.20256 17.1951C9.16398 17.0011 9.18378 16.8 9.25947 16.6173C9.33516 16.4346 9.46333 16.2784 9.62778 16.1685C9.79223 16.0586 9.98557 16 10.1833 16C10.4486 16 10.7029 16.1054 10.8905 16.2929C11.078 16.4804 11.1833 16.7348 11.1833 17ZM19.1833 0H15.1833C14.9181 0 14.6638 0.105357 14.4762 0.292893C14.2887 0.48043 14.1833 0.734784 14.1833 1V19C14.1833 19.2652 14.2887 19.5196 14.4762 19.7071C14.6638 19.8946 14.9181 20 15.1833 20H19.1833C19.4486 20 19.7029 19.8946 19.8905 19.7071C20.078 19.5196 20.1833 19.2652 20.1833 19V1C20.1833 0.734784 20.078 0.48043 19.8905 0.292893C19.7029 0.105357 19.4486 0 19.1833 0ZM17.1833 19C16.7878 19 16.4011 18.8827 16.0722 18.6629C15.7433 18.4432 15.487 18.1308 15.3356 17.7654C15.1842 17.3999 15.1446 16.9978 15.2218 16.6098C15.2989 16.2219 15.4894 15.8655 15.7691 15.5858C16.0488 15.3061 16.4052 15.1156 16.7932 15.0384C17.1811 14.9613 17.5833 15.0009 17.9487 15.1522C18.3142 15.3036 18.6265 15.56 18.8463 15.8889C19.0661 16.2178 19.1833 16.6044 19.1833 17C19.1833 17.5304 18.9726 18.0391 18.5976 18.4142C18.2225 18.7893 17.7138 19 17.1833 19ZM19.1833 10H15.1833V1H19.1833V10ZM18.1833 17C18.1833 17.1978 18.1247 17.3911 18.0148 17.5556C17.9049 17.72 17.7488 17.8482 17.566 17.9239C17.3833 17.9996 17.1822 18.0194 16.9883 17.9808C16.7943 17.9422 16.6161 17.847 16.4762 17.7071C16.3364 17.5673 16.2411 17.3891 16.2026 17.1951C16.164 17.0011 16.1838 16.8 16.2595 16.6173C16.3352 16.4346 16.4633 16.2784 16.6278 16.1685C16.7922 16.0586 16.9856 16 17.1833 16C17.4486 16 17.7029 16.1054 17.8905 16.2929C18.078 16.4804 18.1833 16.7348 18.1833 17Z" fill="white"/>
</svg>
