<svg
  width="89"
  height="78"
  viewBox="0 0 89 78"
  fill="none"
  xmlns="http://www.w3.org/2000/svg"
>
  <path
    d="M42.5377 38.1625C43.6193 39.2898 45.3807 39.2898 46.4778 38.1625L63.3043 20.7648C68.187 15.707 67.9089 7.32809 62.4391 2.66637C57.68 -1.40121 50.5879 -0.669959 46.2306 3.83942L44.5 5.62184L42.7849 3.85465C38.4276 -0.669959 31.3354 -1.40121 26.5764 2.66637C21.122 7.32809 20.8285 15.707 25.7111 20.7648L42.5377 38.1625ZM87.3467 49.9843C85.5234 48.3543 82.6804 48.4609 80.7644 49.9843L66.4873 61.2425C64.7413 62.6289 62.5627 63.3753 60.3068 63.3753H42.0278C40.6681 63.3753 39.5556 62.2785 39.5556 60.9378C39.5556 59.5972 40.6681 58.5003 42.0278 58.5003H54.1262C56.583 58.5003 58.8698 56.8398 59.2715 54.448C59.7814 51.4011 57.4019 48.7503 54.3889 48.7503H29.6667C25.4948 48.7503 21.462 50.1671 18.2172 52.757L11.0323 58.5003H2.47222C1.1125 58.5003 0 59.5972 0 60.9378V75.5628C0 76.9035 1.1125 78.0003 2.47222 78.0003H57.6028C59.8432 78.0003 62.0219 77.2539 63.7833 75.8675L87.1458 57.4339C89.4944 55.5906 89.6799 52.0562 87.3467 49.9843Z"
    fill="#3D98FF"
  />
  <defs>
    <linearGradient
      id="paint0_linear_1003_1799"
      x1="44.5025"
      y1="-0.00292969"
      x2="44.5025"
      y2="78.0003"
      gradientUnits="userSpaceOnUse"
    >
      <stop stop-color="#3D98FF" />
      <stop offset="1" stop-color="#3D98FF" />
    </linearGradient>
  </defs>
</svg>