<svg width="27" height="27" viewBox="0 0 27 27" fill="none" xmlns="http://www.w3.org/2000/svg">
<path d="M20.0111 9.05093C20.0111 7.29642 19.3141 5.61377 18.0735 4.37315C16.8329 3.13252 15.1502 2.43555 13.3957 2.43555C11.6412 2.43555 9.95858 3.13252 8.71795 4.37315C7.47732 5.61377 6.78035 7.29642 6.78035 9.05093C6.78035 16.7689 3.47266 18.974 3.47266 18.974H23.3188C23.3188 18.974 20.0111 16.7689 20.0111 9.05093Z" fill="#3D98FF"/>
<path d="M15.3032 23.3848C15.1093 23.7189 14.8311 23.9963 14.4963 24.1891C14.1616 24.3819 13.782 24.4834 13.3957 24.4834C13.0094 24.4834 12.6299 24.3819 12.2951 24.1891C11.9604 23.9963 11.6821 23.7189 11.4883 23.3848" stroke="#3D98FF" stroke-width="2" stroke-linecap="round" stroke-linejoin="round"/>
</svg>
