<svg width="25" height="24" viewBox="0 0 25 24" fill="none" xmlns="http://www.w3.org/2000/svg">
<path d="M1.68335 16.5C1.68335 16.1022 1.84138 15.7206 2.12269 15.4393C2.40399 15.158 2.78552 15 3.18335 15H6.18335C6.58117 15 6.96271 15.158 7.24401 15.4393C7.52531 15.7206 7.68335 16.1022 7.68335 16.5V21C7.68335 21.3978 7.52531 21.7794 7.24401 22.0607C6.96271 22.342 6.58117 22.5 6.18335 22.5H3.18335C2.78552 22.5 2.40399 22.342 2.12269 22.0607C1.84138 21.7794 1.68335 21.3978 1.68335 21V16.5ZM9.18335 10.5C9.18335 10.1022 9.34139 9.72064 9.62269 9.43934C9.90399 9.15804 10.2855 9 10.6833 9H13.6833C14.0812 9 14.4627 9.15804 14.744 9.43934C15.0253 9.72064 15.1833 10.1022 15.1833 10.5V21C15.1833 21.3978 15.0253 21.7794 14.744 22.0607C14.4627 22.342 14.0812 22.5 13.6833 22.5H10.6833C10.2855 22.5 9.90399 22.342 9.62269 22.0607C9.34139 21.7794 9.18335 21.3978 9.18335 21V10.5ZM16.6833 3C16.6833 2.60218 16.8414 2.22064 17.1227 1.93934C17.404 1.65804 17.7855 1.5 18.1833 1.5H21.1833C21.5812 1.5 21.9627 1.65804 22.244 1.93934C22.5253 2.22064 22.6833 2.60218 22.6833 3V21C22.6833 21.3978 22.5253 21.7794 22.244 22.0607C21.9627 22.342 21.5812 22.5 21.1833 22.5H18.1833C17.7855 22.5 17.404 22.342 17.1227 22.0607C16.8414 21.7794 16.6833 21.3978 16.6833 21V3Z" fill="white"/>
</svg>
