<svg width="16" height="20" viewBox="0 0 16 20" fill="none" xmlns="http://www.w3.org/2000/svg">
<path d="M4.6854 1.60039H2.7834C2.30601 1.60039 1.84817 1.79003 1.51061 2.1276C1.17304 2.46516 0.983398 2.923 0.983398 3.40039V17.8004C0.983398 18.2778 1.17304 18.7356 1.51061 19.0732C1.84817 19.4107 2.30601 19.6004 2.7834 19.6004H13.5834C14.0608 19.6004 14.5186 19.4107 14.8562 19.0732C15.1938 18.7356 15.3834 18.2778 15.3834 17.8004V3.40039C15.3834 2.923 15.1938 2.46516 14.8562 2.1276C14.5186 1.79003 14.0608 1.60039 13.5834 1.60039H11.6814C11.5573 1.2493 11.3273 0.945345 11.0232 0.730424C10.7191 0.515504 10.3558 0.400196 9.9834 0.400391H6.3834C6.01101 0.400196 5.64772 0.515504 5.34361 0.730424C5.0395 0.945345 4.80953 1.2493 4.6854 1.60039ZM6.3834 1.60039H9.9834C10.1425 1.60039 10.2951 1.66361 10.4077 1.77613C10.5202 1.88865 10.5834 2.04126 10.5834 2.20039C10.5834 2.35952 10.5202 2.51213 10.4077 2.62465C10.2951 2.73718 10.1425 2.80039 9.9834 2.80039H6.3834C6.22427 2.80039 6.07166 2.73718 5.95913 2.62465C5.84661 2.51213 5.7834 2.35952 5.7834 2.20039C5.7834 2.04126 5.84661 1.88865 5.95913 1.77613C6.07166 1.66361 6.22427 1.60039 6.3834 1.60039ZM6.9834 8.20039C6.9834 8.04126 7.04661 7.88865 7.15913 7.77613C7.27166 7.6636 7.42427 7.60039 7.5834 7.60039H11.7834C11.9425 7.60039 12.0951 7.6636 12.2077 7.77613C12.3202 7.88865 12.3834 8.04126 12.3834 8.20039C12.3834 8.35952 12.3202 8.51213 12.2077 8.62465C12.0951 8.73718 11.9425 8.80039 11.7834 8.80039H7.5834C7.42427 8.80039 7.27166 8.73718 7.15913 8.62465C7.04661 8.51213 6.9834 8.35952 6.9834 8.20039ZM6.9834 11.8004C6.9834 11.6413 7.04661 11.4886 7.15913 11.3761C7.27166 11.2636 7.42427 11.2004 7.5834 11.2004H11.7834C11.9425 11.2004 12.0951 11.2636 12.2077 11.3761C12.3202 11.4886 12.3834 11.6413 12.3834 11.8004C12.3834 11.9595 12.3202 12.1121 12.2077 12.2247C12.0951 12.3372 11.9425 12.4004 11.7834 12.4004H7.5834C7.42427 12.4004 7.27166 12.3372 7.15913 12.2247C7.04661 12.1121 6.9834 11.9595 6.9834 11.8004ZM6.9834 15.4004C6.9834 15.2413 7.04661 15.0886 7.15913 14.9761C7.27166 14.8636 7.42427 14.8004 7.5834 14.8004H11.7834C11.9425 14.8004 12.0951 14.8636 12.2077 14.9761C12.3202 15.0886 12.3834 15.2413 12.3834 15.4004C12.3834 15.5595 12.3202 15.7121 12.2077 15.8247C12.0951 15.9372 11.9425 16.0004 11.7834 16.0004H7.5834C7.42427 16.0004 7.27166 15.9372 7.15913 15.8247C7.04661 15.7121 6.9834 15.5595 6.9834 15.4004ZM5.7834 8.20039C5.7834 8.43909 5.68858 8.668 5.51979 8.83679C5.35101 9.00557 5.12209 9.10039 4.8834 9.10039C4.6447 9.10039 4.41579 9.00557 4.247 8.83679C4.07822 8.668 3.9834 8.43909 3.9834 8.20039C3.9834 7.9617 4.07822 7.73278 4.247 7.56399C4.41579 7.39521 4.6447 7.30039 4.8834 7.30039C5.12209 7.30039 5.35101 7.39521 5.51979 7.56399C5.68858 7.73278 5.7834 7.9617 5.7834 8.20039ZM5.7834 11.8004C5.7834 12.0391 5.68858 12.268 5.51979 12.4368C5.35101 12.6056 5.12209 12.7004 4.8834 12.7004C4.6447 12.7004 4.41579 12.6056 4.247 12.4368C4.07822 12.268 3.9834 12.0391 3.9834 11.8004C3.9834 11.5617 4.07822 11.3328 4.247 11.164C4.41579 10.9952 4.6447 10.9004 4.8834 10.9004C5.12209 10.9004 5.35101 10.9952 5.51979 11.164C5.68858 11.3328 5.7834 11.5617 5.7834 11.8004ZM4.8834 16.3004C4.6447 16.3004 4.41579 16.2056 4.247 16.0368C4.07822 15.868 3.9834 15.6391 3.9834 15.4004C3.9834 15.1617 4.07822 14.9328 4.247 14.764C4.41579 14.5952 4.6447 14.5004 4.8834 14.5004C5.12209 14.5004 5.35101 14.5952 5.51979 14.764C5.68858 14.9328 5.7834 15.1617 5.7834 15.4004C5.7834 15.6391 5.68858 15.868 5.51979 16.0368C5.35101 16.2056 5.12209 16.3004 4.8834 16.3004Z" fill="#3D98FF"/>
</svg>
