<svg width="25" height="24" viewBox="0 0 25 24" fill="none" xmlns="http://www.w3.org/2000/svg">
<g clip-path="url(#clip0_1954_5323)">
<path d="M12.1833 13.5C13.0118 13.5 13.6833 12.8284 13.6833 12C13.6833 11.1716 13.0118 10.5 12.1833 10.5C11.3549 10.5 10.6833 11.1716 10.6833 12C10.6833 12.8284 11.3549 13.5 12.1833 13.5Z" fill="white"/>
<path d="M22.0734 10.32L21.2834 7.8C21.1981 7.50875 21.055 7.23767 20.8627 7.00292C20.6703 6.76817 20.4327 6.57456 20.1639 6.43364C19.8951 6.29272 19.6007 6.20737 19.2983 6.1827C18.9958 6.15802 18.6914 6.19451 18.4034 6.29L18.0634 6.4C17.797 6.48805 17.5133 6.51038 17.2365 6.46511C16.9596 6.41984 16.6978 6.3083 16.4734 6.14L16.3634 6.06C16.1444 5.89237 15.9678 5.67562 15.848 5.42723C15.7281 5.17884 15.6683 4.90575 15.6734 4.63V4.35C15.6783 3.72202 15.4337 3.11779 14.9934 2.67C14.784 2.45845 14.5348 2.29036 14.2602 2.17538C13.9856 2.0604 13.6911 2.0008 13.3934 2H10.8434C10.2316 2.00791 9.64763 2.25719 9.21873 2.69358C8.78983 3.12997 8.5507 3.71813 8.55338 4.33V4.57C8.55242 4.86027 8.48634 5.14663 8.36 5.40796C8.23365 5.6693 8.05028 5.89895 7.82338 6.08L7.69338 6.18C7.44273 6.36962 7.14955 6.49516 6.83934 6.5457C6.52913 6.59624 6.21127 6.57025 5.91338 6.47C5.6398 6.37532 5.34985 6.33715 5.06108 6.35777C4.77232 6.3784 4.49074 6.4574 4.23338 6.59C3.96544 6.72299 3.72773 6.90969 3.53505 7.1385C3.34236 7.36731 3.19883 7.63333 3.11338 7.92L2.29338 10.52C2.10323 11.1062 2.15199 11.7437 2.42909 12.2942C2.70619 12.8447 3.18926 13.2636 3.77338 13.46H3.93338C4.20284 13.561 4.44469 13.7241 4.63929 13.9361C4.83389 14.148 4.97576 14.4029 5.05338 14.68L5.11338 14.84C5.22486 15.1461 5.26214 15.4743 5.22216 15.7977C5.18217 16.121 5.06607 16.4302 4.88338 16.7C4.5136 17.2036 4.35763 17.8328 4.44939 18.4508C4.54115 19.0688 4.87323 19.6256 5.37338 20L7.44338 21.57C7.83534 21.855 8.30882 22.0058 8.79338 22C8.92307 22.0127 9.05369 22.0127 9.18338 22C9.48349 21.9419 9.76861 21.8233 10.0213 21.6514C10.2741 21.4794 10.4891 21.2578 10.6534 21L10.8834 20.67C11.0447 20.4386 11.2582 20.2483 11.5066 20.1145C11.755 19.9808 12.0314 19.9073 12.3134 19.9C12.6089 19.8927 12.9015 19.9604 13.1638 20.0968C13.4261 20.2332 13.6496 20.4339 13.8134 20.68L13.9334 20.85C14.1039 21.1037 14.3245 21.3199 14.5817 21.4852C14.8389 21.6504 15.1272 21.7613 15.4288 21.8109C15.7305 21.8606 16.0391 21.848 16.3357 21.7739C16.6323 21.6997 16.9106 21.5657 17.1534 21.38L19.1834 19.86C19.6634 19.4872 19.9825 18.945 20.0755 18.3444C20.1685 17.7438 20.0282 17.1304 19.6834 16.63L19.4234 16.25C19.267 16.0084 19.1647 15.736 19.1232 15.4512C19.0818 15.1664 19.1023 14.8761 19.1834 14.6C19.266 14.3044 19.4193 14.0334 19.6302 13.8104C19.841 13.5874 20.1029 13.4191 20.3934 13.32L20.5934 13.25C21.1721 13.0492 21.6501 12.6312 21.9262 12.0845C22.2024 11.5377 22.2552 10.905 22.0734 10.32ZM12.1834 15.5C11.4911 15.5 10.8145 15.2947 10.2389 14.9101C9.66332 14.5256 9.21471 13.9789 8.94981 13.3394C8.6849 12.6998 8.61559 11.9961 8.75064 11.3172C8.88568 10.6382 9.21903 10.0146 9.70851 9.52513C10.198 9.03564 10.8216 8.7023 11.5006 8.56725C12.1795 8.4322 12.8832 8.50151 13.5228 8.76642C14.1623 9.03133 14.7089 9.47993 15.0935 10.0555C15.4781 10.6311 15.6834 11.3078 15.6834 12C15.6834 12.9283 15.3146 13.8185 14.6583 14.4749C14.0019 15.1312 13.1116 15.5 12.1834 15.5Z" fill="white"/>
</g>
<defs>
<clipPath id="clip0_1954_5323">
<rect width="24" height="24" fill="white" transform="translate(0.18335)"/>
</clipPath>
</defs>
</svg>
