<svg width="20" height="20" viewBox="0 0 20 20" fill="none" xmlns="http://www.w3.org/2000/svg">
<path d="M9.99984 9.08329C9.4915 9.08329 9.08317 9.49163 9.08317 9.99996C9.08317 10.5083 9.4915 10.9166 9.99984 10.9166C10.5082 10.9166 10.9165 10.5083 10.9165 9.99996C10.9165 9.49163 10.5082 9.08329 9.99984 9.08329ZM9.99984 1.66663C5.39984 1.66663 1.6665 5.39996 1.6665 9.99996C1.6665 14.6 5.39984 18.3333 9.99984 18.3333C14.5998 18.3333 18.3332 14.6 18.3332 9.99996C18.3332 5.39996 14.5998 1.66663 9.99984 1.66663ZM11.8248 11.825L4.99984 15L8.17484 8.17496L14.9998 4.99996L11.8248 11.825Z" fill="#3D98FF"/>
</svg>
