<svg width="16" height="16" viewBox="0 0 16 16" fill="none" xmlns="http://www.w3.org/2000/svg">
<path d="M13.334 1.3335H2.66732C1.93398 1.3335 1.33398 1.9335 1.33398 2.66683V14.6668L4.00065 12.0002H13.334C14.0673 12.0002 14.6673 11.4002 14.6673 10.6668V2.66683C14.6673 1.9335 14.0673 1.3335 13.334 1.3335ZM4.00065 9.3335V7.68683L8.58732 3.10016C8.72065 2.96683 8.92732 2.96683 9.06065 3.10016L10.2407 4.28016C10.374 4.4135 10.374 4.62016 10.2407 4.7535L5.64732 9.3335H4.00065ZM11.334 9.3335H7.00065L8.33398 8.00016H11.334C11.7007 8.00016 12.0007 8.30016 12.0007 8.66683C12.0007 9.0335 11.7007 9.3335 11.334 9.3335Z" fill="#3D98FF"/>
</svg>
