<svg width="18" height="17" viewBox="0 0 18 17" fill="none" xmlns="http://www.w3.org/2000/svg">
<path d="M13.9998 11.3542V7.18758C13.9998 4.62925 12.6332 2.48758 10.2498 1.92091V1.35425C10.2498 0.662581 9.68315 0.104248 8.99148 0.104248C8.29982 0.104248 7.74982 0.662581 7.74982 1.35425V1.92091C5.35815 2.48758 3.99982 4.62091 3.99982 7.18758V11.3542L2.91648 12.4292C2.39148 12.9542 2.75815 13.8542 3.49982 13.8542H14.4748C15.2165 13.8542 15.5915 12.9542 15.0665 12.4292L13.9998 11.3542ZM8.99148 16.3542C9.90815 16.3542 10.6582 15.6042 10.6582 14.6876H7.32482C7.32482 15.1296 7.50041 15.5535 7.81297 15.8661C8.12553 16.1787 8.54946 16.3542 8.99148 16.3542ZM4.64148 1.96258C4.99148 1.64591 4.99982 1.10425 4.66648 0.770915C4.51327 0.618459 4.30681 0.531499 4.09069 0.528389C3.87457 0.525279 3.66569 0.606264 3.50815 0.754248C2.054 2.0803 1.09321 3.86084 0.783152 5.80425C0.708152 6.31258 1.09982 6.77091 1.61648 6.77091C2.01648 6.77091 2.36648 6.47925 2.43315 6.07925C2.67873 4.4955 3.45784 3.04312 4.64148 1.96258ZM14.4998 0.754248C14.1665 0.445915 13.6498 0.454248 13.3332 0.770915C12.9998 1.10425 13.0165 1.63758 13.3582 1.95425C14.5082 3.01258 15.3165 4.45425 15.5665 6.07091C15.6248 6.47091 15.9748 6.76258 16.3832 6.76258C16.8915 6.76258 17.2915 6.30425 17.2082 5.79591C16.8915 3.82091 15.9165 2.06258 14.4998 0.754248Z" fill="#BDBDBD"/>
</svg>
