<svg width="18" height="19" viewBox="0 0 18 19" fill="none" xmlns="http://www.w3.org/2000/svg">
<path d="M15.0056 13.6431C14.1129 12.6759 13.0296 11.904 11.8239 11.3761C10.6182 10.8481 9.31627 10.5756 8.00005 10.5756C6.68384 10.5756 5.38189 10.8481 4.1762 11.3761C2.9705 11.904 1.88719 12.6759 0.994499 13.6431C0.856675 13.7955 0.779578 13.9932 0.777832 14.1986V17.532C0.780753 17.7511 0.869839 17.9602 1.0258 18.1141C1.18177 18.2679 1.39206 18.3542 1.61117 18.3542H14.3889C14.61 18.3542 14.8219 18.2664 14.9782 18.1101C15.1345 17.9538 15.2223 17.7419 15.2223 17.5209V14.1875C15.2178 13.9859 15.1409 13.7926 15.0056 13.6431Z" fill="#BDBDBD"/>
<path d="M8.00012 9.46526C8.89257 9.46523 9.75785 9.15824 10.4508 8.59581C11.1437 8.03338 11.6221 7.24973 11.8057 6.37637C11.3053 5.90942 10.9293 5.32492 10.712 4.67589C10.4947 4.02686 10.4429 3.33384 10.5612 2.65971C10.089 2.24321 9.5226 1.94762 8.91086 1.79835C8.29911 1.64907 7.66026 1.65059 7.04923 1.80275C6.4382 1.95492 5.87325 2.25319 5.40296 2.67192C4.93266 3.09066 4.57108 3.61733 4.3493 4.20668C4.12751 4.79602 4.05215 5.43041 4.1297 6.05531C4.20725 6.68021 4.43538 7.27694 4.79449 7.7942C5.1536 8.31145 5.63295 8.73377 6.19133 9.02485C6.74971 9.31593 7.37042 9.46706 8.00012 9.46526Z" fill="#BDBDBD"/>
<path d="M14.6664 6.13197C16.2006 6.13197 17.4442 4.88832 17.4442 3.35419C17.4442 1.82007 16.2006 0.576416 14.6664 0.576416C13.1323 0.576416 11.8887 1.82007 11.8887 3.35419C11.8887 4.88832 13.1323 6.13197 14.6664 6.13197Z" fill="#BDBDBD"/>
</svg>
